<svg width="56" height="23" viewBox="0 0 56 23" fill="none" xmlns="http://www.w3.org/2000/svg">
<path d="M52.0534 19.0823H49.0501V20.3254H51.9422C53.1658 20.3254 53.9444 19.5345 53.9444 18.4041C53.9444 17.2737 53.2772 16.7085 52.1648 16.7085H50.8299C50.4963 16.7085 50.2737 16.4825 50.2737 16.1435C50.2737 15.8045 50.4961 15.5783 50.8297 15.5783H53.3882L53.9444 14.335H50.9411C49.7175 14.335 48.9389 15.1262 48.9389 16.1435C48.9389 17.2737 49.6061 17.8389 50.7185 17.8389H52.0534C52.387 17.8389 52.6096 18.0649 52.6096 18.4039C52.7208 18.8561 52.4982 19.0823 52.0534 19.0823ZM46.6032 19.0823H43.5999V20.3254H46.4918C47.7152 20.3254 48.4939 19.5345 48.4939 18.4041C48.4939 17.2737 47.8266 16.7085 46.7142 16.7085H45.3794C45.0457 16.7085 44.8233 16.4825 44.8233 16.1435C44.8233 15.8045 45.0457 15.5783 45.3794 15.5783H47.9378L48.4939 14.335H45.4906C44.2669 14.335 43.4883 15.1262 43.4883 16.1435C43.4883 17.2737 44.1557 17.8389 45.2682 17.8389H46.603C46.9366 17.8389 47.159 18.0649 47.159 18.4039C47.2702 18.8561 46.9368 19.0823 46.6032 19.0823ZM42.7097 15.4653V14.222H38.0379V20.2125H42.7097V18.9691H39.3728V17.7259H42.5985V16.4825H39.3728V15.3521H42.7097V15.4653ZM35.1458 15.4653C35.7018 15.4653 35.9243 15.8043 35.9243 16.1433C35.9243 16.4825 35.7018 16.8215 35.1458 16.8215H33.4772V15.3521L35.1458 15.4653ZM33.4772 18.0649H34.1446L35.9244 20.2125H37.5929L35.5906 17.9519C36.5919 17.7259 37.1479 17.0477 37.1479 16.1435C37.1479 15.0132 36.3695 14.222 35.1458 14.222H32.0311V20.2125H33.366L33.4772 18.0649ZM29.9177 16.2565C29.9177 16.7085 29.6952 17.0475 29.1392 17.0475H27.3594V15.4653H29.0278C29.5838 15.4653 29.9177 15.8045 29.9177 16.2565ZM26.0245 14.2218V20.2123H27.3594V18.1777H29.139C30.3627 18.1777 31.2525 17.3867 31.2525 16.1433C31.2525 15.013 30.4741 14.1088 29.2502 14.1088L26.0245 14.2218ZM24.0223 20.2123H25.6907L23.3548 17.1605L25.6907 14.2218H24.0223L22.5762 16.1433L21.1302 14.2218H19.4617L21.7976 17.1605L19.4617 20.0993H21.1302L22.5762 18.1777L24.0223 20.2123ZM19.0167 15.4651V14.2218H14.3447V20.2123H19.0167V18.9689H15.6796V17.7257H18.9055V16.4823H15.6796V15.3519H19.0167V15.4651ZM46.0468 4.84035L48.3827 8.45728H50.0513V2.467H48.7165V6.42292L48.3829 5.85793L46.2692 2.467H44.4895V8.45748H45.8244V4.38836L46.0468 4.84035ZM40.2626 4.72735L40.7074 3.48398L41.1524 4.72735L41.7084 6.08373H39.7064L40.2626 4.72735ZM42.5985 8.45728H44.0445L41.4862 2.4668H39.7064L37.1479 8.45728H38.5939L39.1502 7.21391H42.0423L42.5985 8.45728ZM36.3693 8.45728L36.9255 7.21391H36.5919C35.5906 7.21391 35.0344 6.53592 35.0344 5.51854V5.40554C35.0344 4.38816 35.5906 3.70997 36.5919 3.70997H38.0379V2.4668H36.4807C34.7008 2.4668 33.6998 3.70997 33.6998 5.40554V5.51854C33.6998 7.3269 34.7008 8.45728 36.3693 8.45728ZM31.3637 8.45728H32.6985V2.57999H31.3637V8.45728ZM28.4716 3.70997C29.0278 3.70997 29.2502 4.04897 29.2502 4.38816C29.2502 4.72735 29.0278 5.06635 28.4718 5.06635H26.8032V3.59698L28.4716 3.70997ZM26.8032 6.30972H27.4704L29.2502 8.45728H30.9189L28.9166 6.19672C29.9177 5.97073 30.4739 5.29254 30.4739 4.38816C30.4739 3.25798 29.6952 2.4668 28.4716 2.4668H25.3571V8.45728H26.6919L26.8032 6.30972ZM24.3561 3.70997V2.4668H19.6841V8.45728H24.3561V7.21391H21.019V5.97073H24.2447V4.72735H21.019V3.59698H24.3561V3.70997ZM14.2335 8.45728H15.4572L17.1256 3.59698V8.45728H18.4605V2.467H16.2358L14.901 6.53592L13.5661 2.467H11.3414V8.45748H12.6763V3.59717L14.2335 8.45728ZM7.0033 4.72735L7.44812 3.48398L7.89313 4.72735L8.44935 6.08373H6.44708L7.0033 4.72735ZM9.33918 8.45728H10.7854L8.22694 2.467H6.55848L4 8.45748H5.44605L6.00207 7.2141H8.89436L9.33918 8.45728Z" fill="#006FCF"/>
</svg>
